<?xml version="1.0"?>
<svg xmlns="http://www.w3.org/2000/svg" xmlns:xlink="http://www.w3.org/1999/xlink" data-noselect="" viewBox="0 0 850 400" width="1700" height="800" preserveAspectRatio="none" version="1.1"><defs/> <g id="background" data-noselect=""><rect fill="#ffffff" width="850" height="400" data-noselect=""/> <!----></g> <g id="shape_F713obg7mh" transform="translate(30.733391253659946,15.225988402759953) rotate(0,122.47235982444516,132.4687872982621) scale(1,1)" filter="" style="cursor: move; opacity: 1;"><g><svg xmlns="http://www.w3.org/2000/svg" xmlns:xlink="http://www.w3.org/1999/xlink" version="1.1" id="&#x56FE;&#x5C42;_1" x="0px" y="0px" width="244.94471964889033" height="264.9375745965242" viewBox="0 0 189.9 205.4" style="enable-background:new 0 0 189.9 205.4;" xml:space="preserve" class="style-removed" preserveAspectRatio="none" data-parent="shape_F713obg7mh">

<g>
	<path d="M97.6,61.7c0,3.1-0.3,6.2-0.9,9.2L81.5,60.4v36.8c-8.3,7.2-19.1,11.6-31,11.6c-1.7,0-3.4-0.1-5-0.3   C21.8,106.1,3.4,86.1,3.4,61.7c0-26,21.1-47.1,47.1-47.1c19.3,0,35.9,11.6,43.2,28.2C96.2,48.6,97.6,55,97.6,61.7z" fill="#F15022" stroke-width="0"/>
	<circle cx="160.7" cy="129.6" r="29.3" fill="#FFB800" stroke-width="0"/>
	<circle cx="33.9" cy="171.5" r="33.9" fill="#7FB900" stroke-width="0"/>
	<path d="M101.5,42.3c-2.7,0-5.3,0.2-7.8,0.5c-27.7,3.8-49,27.6-49,56.3c0,3.2,0.3,6.4,0.8,9.5   c4.5,26.8,27.9,47.3,56,47.3c12.8,0,24.5-4.2,34-11.3c13.5-10.1,22.4-26.1,22.8-44.2c0-0.5,0-0.9,0-1.4   C158.4,67.7,132.9,42.3,101.5,42.3z M81.5,137.7V60.4l15.3,10.5l41.1,28.2L81.5,137.7z" fill="#00A3EE" stroke-width="0"/>
	<circle cx="132.7" cy="14.6" r="14.6" fill="#0072C5" stroke-width="0"/>
</g>
</svg></g></g><g id="shape_8Tg32KRms6" transform="translate(-0.07424892189462184,-271.3006815486803) rotate(0,767.0520478152818,551.34) scale(1,1)" filter="" style="cursor: move; opacity: 1;"><g><svg xmlns="http://www.w3.org/2000/svg" xmlns:xlink="http://www.w3.org/1999/xlink" version="1.1" width="1840.6640956305637" height="1132.10976" viewBox="0 0 1840.6640956305637 1132.10976" data-parent="shape_8Tg32KRms6"><g data-width="666.1548799999999" transform="translate(153.28, 0)"><path d="M47.36 0L26.98 0L4.14-84.30L21.92-84.30L33.11-38.63Q34.79-30.50 36.17-22.69L36.17-22.69Q36.94-18.70 37.71-14.71L37.71-14.71L38.32-14.71Q39.24-18.70 40.16-22.69L40.16-22.69Q41.85-30.66 43.84-38.63L43.84-38.63L55.64-84.30L72.04-84.30L84.15-38.63Q85.53-32.96 86.76-27.44L86.76-27.44Q88.29-21.15 89.82-14.71L89.82-14.71L90.44-14.71Q91.51-19.62 92.43-24.52L92.43-24.52Q93.81-31.42 95.34-38.63L95.34-38.63L106.22-84.30L122.78-84.30L101.01 0L79.86 0L69.13-41.69Q66.83-51.35 64.68-61.62L64.68-61.62Q64.22-63.76 63.76-66.06L63.76-66.06L63.00-66.06Q60.70-53.19 57.63-41.54L57.63-41.54L47.36 0Z" transform="translate(0 608.84) " fill="rgb(51, 67, 78)" stroke="rgb(51, 67, 78)" stroke-width="0.255" data-glyph-w="126.91584" data-glyph-h="153.28" data-glyph-ascender="134.8864" data-glyph-descender="-18.3936"/><path d="M36.17 1.99L36.17 1.99Q27.44 1.99 19.08-1.23Q10.73-4.45 4.45-9.66L4.45-9.66L12.72-21.00Q18.24-16.40 24.06-13.87Q29.89-11.34 36.63-11.34L36.63-11.34Q44.30-11.34 47.90-14.64Q51.50-17.93 51.50-22.69L51.50-22.69Q51.50-26.36 48.90-28.89Q46.29-31.42 42.31-33.34Q38.32-35.25 33.72-36.94L33.72-36.94Q33.26-37.09 32.80-37.25L32.80-37.25Q27.13-39.39 21.61-42.38Q16.09-45.37 12.42-50.05Q8.74-54.72 8.74-61.77L8.74-61.77Q8.74-72.35 16.71-79.40Q24.68-86.45 38.63-86.45L38.63-86.45Q47.21-86.45 54.03-83.54Q60.85-80.63 66.06-76.49L66.06-76.49L57.79-65.60Q53.49-68.82 48.90-70.89Q44.30-72.96 38.93-72.96L38.93-72.96Q32.04-72.96 28.74-69.97Q25.44-66.98 25.44-62.54L25.44-62.54Q25.44-57.48 30.35-54.72Q35.25-51.96 41.85-49.82L41.85-49.82Q42.61-49.51 43.38-49.20L43.38-49.20Q49.36-47.06 55.03-44.14Q60.70-41.23 64.45-36.40Q68.21-31.58 68.21-23.61L68.21-23.61Q68.21-13.03 60.01-5.52Q51.81 1.99 36.17 1.99Z" transform="translate(126.91584 608.84) " fill="rgb(51, 67, 78)" stroke="rgb(51, 67, 78)" stroke-width="0.255" data-glyph-w="73.5744" data-glyph-h="153.28" data-glyph-ascender="134.8864" data-glyph-descender="-18.3936"/><path d="M32.65 0L14.87 0L14.87-112.81L49.05-112.81Q61.62-112.81 71.35-109.60Q81.09-106.38 86.60-98.94Q92.12-91.51 92.12-78.79L92.12-78.79Q92.12-66.52 86.60-58.48Q81.09-50.43 71.51-46.60Q61.93-42.77 49.66-42.77L49.66-42.77L32.65-42.77L32.65 0ZM32.65-98.56L32.65-57.02L47.98-57.02Q75.11-57.02 74.65-78.79L74.65-78.79Q74.65-89.98 67.75-94.27Q60.85-98.56 47.36-98.56L47.36-98.56L32.65-98.56Z" transform="translate(200.49024 608.84) " fill="rgb(51, 67, 78)" stroke="rgb(51, 67, 78)" stroke-width="0.255" data-glyph-w="99.17216" data-glyph-h="153.28" data-glyph-ascender="134.8864" data-glyph-descender="-18.3936"/><path d="M30.81 1.99L30.81 1.99Q21.31 1.99 17.32-3.76Q13.34-9.50 13.34-19.77L13.34-19.77L13.34-122.16L30.81-122.16L30.81-18.85Q30.81-15.33 32.19-13.87Q33.57-12.42 35.10-12.42L35.10-12.42Q35.71-12.42 36.33-12.49Q36.94-12.57 38.01-12.72L38.01-12.72L40.31 0.61Q37.25 1.99 30.81 1.99Z" transform="translate(299.6624 608.84) " fill="rgb(51, 67, 78)" stroke="rgb(51, 67, 78)" stroke-width="0.255" data-glyph-w="45.67744" data-glyph-h="153.28" data-glyph-ascender="134.8864" data-glyph-descender="-18.3936"/><path d="M33.26 1.99L33.26 1.99Q22.38 1.99 15.40-4.60Q8.43-11.19 8.43-22.38L8.43-22.38Q8.43-36.02 20.54-43.45Q32.65-50.89 58.86-53.65L58.86-53.65Q58.86-58.55 57.40-62.77Q55.95-66.98 52.50-69.51Q49.05-72.04 42.77-72.04L42.77-72.04Q36.17-72.04 29.97-69.51Q23.76-66.98 18.39-63.46L18.39-63.46L11.80-75.41Q18.39-79.71 27.05-83.08Q35.71-86.45 45.83-86.45L45.83-86.45Q61.62-86.45 69.05-77.02Q76.49-67.60 76.49-50.74L76.49-50.74L76.49 0L62.08 0L60.55-9.66L60.09-9.66Q54.26-4.60 47.59-1.30Q40.93 1.99 33.26 1.99ZM38.63-11.96L38.63-11.96Q44.14-11.96 48.97-14.48Q53.80-17.01 58.86-21.77L58.86-21.77L58.86-42.46Q40.31-40.16 32.88-35.48Q25.44-30.81 25.44-23.61L25.44-23.61Q25.44-17.47 29.20-14.71Q32.96-11.96 38.63-11.96Z" transform="translate(345.33984 608.84) " fill="rgb(51, 67, 78)" stroke="rgb(51, 67, 78)" stroke-width="0.255" data-glyph-w="88.136" data-glyph-h="153.28" data-glyph-ascender="134.8864" data-glyph-descender="-18.3936"/><path d="M64.22-84.30L81.39-84.30L50.43 5.06Q47.21 14.10 42.84 20.92Q38.47 27.74 32.27 31.50Q26.06 35.25 17.17 35.25L17.17 35.25Q10.73 35.25 6.59 33.57L6.59 33.57L9.96 19.77Q10.12 19.77 10.12 19.77L10.12 19.77Q11.34 20.23 12.95 20.62Q14.56 21.00 16.09 21.00L16.09 21.00Q22.99 21.00 27.21 16.55Q31.42 12.11 33.72 5.21L33.72 5.21L35.41-0.61L1.99-84.30L20.08-84.30L35.71-40.93Q37.25-36.17 38.78-31.12L38.78-31.12Q41.08-24.06 43.38-17.17L43.38-17.17L44.14-17.17L50.74-40.93L64.22-84.30Z" transform="translate(433.47583999999995 608.84) " fill="rgb(51, 67, 78)" stroke="rgb(51, 67, 78)" stroke-width="0.255" data-glyph-w="83.38432" data-glyph-h="153.28" data-glyph-ascender="134.8864" data-glyph-descender="-18.3936"/><path d="M48.44 1.99L48.44 1.99Q37.09 1.99 27.74-3.22Q18.39-8.43 12.88-18.32Q7.36-28.20 7.36-42.00L7.36-42.00Q7.36-55.79 12.88-65.76Q18.39-75.72 27.21-81.09Q36.02-86.45 45.83-86.45L45.83-86.45Q62.69-86.45 71.43-75.41Q80.17-64.38 80.17-46.44L80.17-46.44Q80.17-41.39 79.40-37.55L79.40-37.55L24.68-37.55Q25.90-25.44 32.88-18.62Q39.85-11.80 50.74-11.80L50.74-11.80Q62.08-11.80 70.82-18.09L70.82-18.09L76.95-6.90Q71.12-2.91 63.92-0.46Q56.71 1.99 48.44 1.99ZM24.52-49.66L24.52-49.66L64.99-49.66Q64.99-60.55 60.16-66.60Q55.33-72.65 46.14-72.65L46.14-72.65Q38.17-72.65 32.11-66.75Q26.06-60.85 24.52-49.66Z" transform="translate(516.86016 608.84) " fill="rgb(51, 67, 78)" stroke="rgb(51, 67, 78)" stroke-width="0.255" data-glyph-w="86.6032" data-glyph-h="153.28" data-glyph-ascender="134.8864" data-glyph-descender="-18.3936"/><path d="M30.81 0L13.34 0L13.34-84.30L27.74-84.30L29.12-69.13L29.58-69.13Q40.01-86.45 53.49-86.45L53.49-86.45Q59.78-86.45 63.00-84.61L63.00-84.61L59.78-69.28Q57.63-70.05 55.79-70.36Q53.95-70.66 51.35-70.66L51.35-70.66Q46.14-70.66 40.54-66.52Q34.95-62.38 30.81-52.58L30.81-52.58L30.81 0Z" transform="translate(603.46336 608.84) " fill="rgb(51, 67, 78)" stroke="rgb(51, 67, 78)" stroke-width="0.255" data-glyph-w="62.69152" data-glyph-h="153.28" data-glyph-ascender="134.8864" data-glyph-descender="-18.3936"/></g></svg></g></g>  <!----></svg>
